<svg id="Layer_1" data-name="Layer 1" xmlns="http://www.w3.org/2000/svg" xmlns:xlink="http://www.w3.org/1999/xlink" viewBox="0 0 1027 1027"><defs><style>.cls-1,.cls-3,.cls-4{fill-rule:evenodd;}.cls-2{fill:#333;}.cls-3,.cls-4{stroke-width:10px;}.cls-3{fill:url(#linear-gradient);stroke:url(#linear-gradient-2);}.cls-4{fill:url(#linear-gradient-3);stroke:url(#linear-gradient-4);}</style><linearGradient id="linear-gradient" x1="13818.99" y1="355.8" x2="13818.99" y2="474.93" gradientTransform="translate(14277.22 1029) rotate(180)" gradientUnits="userSpaceOnUse"><stop offset="0" stop-color="red"/><stop offset="0.15" stop-color="#f0f"/><stop offset="0.33" stop-color="blue"/><stop offset="0.49" stop-color="aqua"/><stop offset="0.67" stop-color="lime"/><stop offset="0.84" stop-color="#ff0"/><stop offset="1" stop-color="red"/></linearGradient><linearGradient id="linear-gradient-2" x1="13449.88" y1="416.31" x2="14188.73" y2="416.31" xlink:href="#linear-gradient"/><linearGradient id="linear-gradient-3" x1="13253.89" y1="541.33" x2="13253.89" y2="660.45" gradientTransform="translate(13821.61 1029) rotate(180)" xlink:href="#linear-gradient"/><linearGradient id="linear-gradient-4" x1="12884.16" y1="599.95" x2="13623" y2="599.95" gradientTransform="translate(13821.61 1029) rotate(180)" xlink:href="#linear-gradient"/></defs><path class="cls-1" d="M819.74,733.61H30.26c-25,0-37.05-20.23-27-45.19L143.91,338.87c10-25,38.41-45.19,63.37-45.19H996.77c25,0,37,20.23,27,45.19L883.12,688.42C873.07,713.38,844.7,733.61,819.74,733.61Z"/><path class="cls-2" d="M751.84,559.69v43.88H708.3V559.69ZM717,577.3h26v-8.53H717Zm26.1,9h-8.52v8.51h8.52Zm-26-.06v8.58h8.51v-8.58Z"/><path class="cls-2" d="M347.56,568.61v8.75h34.78v26.18h-43.5V559.66H382.4v9Zm17.49,26.17h8.59v-8.5h-8.59Zm-17.54,0h8.58v-8.48h-8.58Z"/><path class="cls-2" d="M646.6,383.92v-8.7h44v43.85h-9V401.44h-8.72V419.1H646.61V392.73h8.59V410h8.71v-26Zm34.85,0H672.9v8.51h8.55Z"/><path class="cls-2" d="M585,559.65h43.91v43.89H585V595h35.14V568.78h-8.9v17.27h-8.79V568.81h-8.78v17.27H585Z"/><path class="cls-2" d="M778.53,594.84h8.71V559.67H796v35.12h8.78V559.71h8.7v43.85H769.94V559.69h8.59Z"/><path class="cls-2" d="M277.19,595h17.28V568.77h-8.55v17.28h-8.74V559.7H321.1v8.93H303.48v26.21h17.59v8.7H277.19Z"/><path class="cls-2" d="M620.21,375.18h8.69v43.93h-8.55V401.47h-9.14v17.6H585v-8.9h17.24v-8.78H585v-8.7h17.37V375.2h8.71v17.28h9.14Z"/><path class="cls-2" d="M365.07,401.34V410h17.31v9.09H338.86v-9h17.27v-8.7H338.84V375.2h26v8.61H347.58v8.7h34.78v8.83Z"/><path class="cls-2" d="M356.32,665.14v-8.58h17.29V630h-8.54v17.64H338.82V621.31h8.62v17.63h8.72V621.28H382.4v43.86Z"/><path class="cls-2" d="M532.14,533.22h9V516h8.68v26H523.39V498.43H567.3v26h-8.64V507.16H532.14Z"/><path class="cls-2" d="M734.56,471.73h17.27v8.59H725.69V463h-17.4v-8.77h34.79v-8.71H708.26v-8.66H751.8v26H734.56Z"/><path class="cls-2" d="M593.7,480.42H585V454.27h17.25V445.5H585v-8.68h43.9v26.05H593.7Zm26.44-26.29V445.6h-8.89v8.53Z"/><path class="cls-2" d="M259.49,603.6H233V568.73H215.59v-9.05h43.89V586h-8.61V568.77h-9v26.11h17.64Z"/><path class="cls-2" d="M233.05,630v-8.73h26.4V647.7H241.81v17.45H233V647.92h-8.78v17.26H215.6V639.07h35.14V630Z"/><path class="cls-2" d="M708.28,375.19h26v43.88h-26Zm8.77,26.23V410h8.51v-8.59ZM725.6,384H717v8.49h8.59Z"/><path class="cls-2" d="M620.33,524.52H602.44V507.2h-8.78V542H585V498.43H611.1v17.32h17.81V542h-8.58Z"/><path class="cls-2" d="M479.46,498.36h26.16v8.69H488.34v26.13h8.58V516h8.71v26H479.58V524.61H461.72v-8.72h17.74Z"/><path class="cls-2" d="M294.65,401.44h-8.76v17.64H277.2V375.21h26.05v43.86h-8.6Zm-.17-8.87V384H286v8.59Z"/><path class="cls-2" d="M795.92,542h-26v-8.57h17.27v-8.83H769.88V498.46h26Zm-8.71-34.82h-8.55v8.51h8.55Z"/><path class="cls-2" d="M690.57,515.75V542h-9V524.59h-35V498.45h8.63v17.28H664v-17.3h8.78v17.32Z"/><path class="cls-2" d="M321.13,656.46v8.73h-43.9v-43.9h8.6v35.15h8.7v-17.3h8.78v17.32Z"/><path class="cls-2" d="M312,436.79h9.09v43.58H294.73v-26h8.54v17.23H312Z"/><path class="cls-2" d="M813.43,419.14h-26V375.2H796V410h8.76V392.75h8.7Z"/><path class="cls-2" d="M646.61,603.55v-26h43.9v26h-9V586.27H655.37v17.28Z"/><path class="cls-2" d="M259.5,515.75v8.73H233V507.11H215.55v-8.65h43.9v8.59H241.8v8.7Z"/><path class="cls-2" d="M541,471.78V463H523.4v-8.68h26.41v17.28h17.45v8.74H523.35v-8.57Z"/><path class="cls-2" d="M426.49,665.19h-8.58V647.86H400.47V621.27H409v17.64h8.77V621.32h8.7Z"/><path class="cls-2" d="M751.85,621.27v43.89H708.26v-8.55h34.87V621.27Z"/><path class="cls-2" d="M224.14,454.25h17.48v26.07h-26v-8.54h17.23V463H215.56V436.8h8.58Z"/><path class="cls-2" d="M505.66,410v9.09h-43.9V392.71h8.94V410Z"/><path class="cls-2" d="M215.54,419.08V392.69h8.61v17.39h35.34v9Z"/><path class="cls-2" d="M523.35,419.08V375.2h8.59v34.88h17.85v9Z"/><path class="cls-2" d="M488.16,436.84v8.57H470.88v8.75h17.26v8.65H461.76v-26Z"/><path class="cls-2" d="M708.29,621.25h8.56v17.64h8.76V621.28h8.72v26.36h-26Z"/><path class="cls-2" d="M417.88,419.12V401.48h-8.76v17.65h-8.63V392.72h26v26.4Z"/><path class="cls-2" d="M435.44,383.88H418v-8.67h26v43.88h-8.53Z"/><path class="cls-2" d="M496.92,392.67v-8.76H479.6v-8.72h26v26h-26v-8.55Z"/><path class="cls-2" d="M708.25,541.93v-26h8.6V533.3h35v8.63Z"/><path class="cls-2" d="M646.61,665.15v-8.56h17.27v-8.75H646.64v-8.72h26v26Z"/><path class="cls-2" d="M769.92,436.8h8.58v34.84h17.44v8.73h-26Z"/><path class="cls-2" d="M681.61,665.14V621.27h8.9v43.87Z"/><path class="cls-2" d="M321.09,647.74H312.2V630H294.7v-8.65h26.39Z"/><path class="cls-2" d="M312.08,515.87v-17.4h9v26H294.68v-8.59Z"/><path class="cls-2" d="M233.09,375.19h8.58v17.35h17.8v8.72H233.09Z"/><path class="cls-2" d="M409,603.59h-8.53V559.65H409Z"/><path class="cls-2" d="M444,603.58h-8.53V559.71H444Z"/><path class="cls-2" d="M646.61,462.83V454.3h43.9v8.53Z"/><path class="cls-2" d="M795.93,665.19h-8.54V621.31h8.54Z"/><path class="cls-2" d="M567.3,375.24v8.57H549.94v17.43h-8.72v-26Z"/><path class="cls-2" d="M563.05,661v8.51H550V647.88h21.67v21.63h-4.23V661Zm-4.5,0h-4.18v4.14h4.18Zm4.58-8.76v4.15h4.17v-4.15Zm-8.75,0v4.15h4.16v-4.15Z"/><path class="cls-2" d="M743.11,498.41h8.72v26H725.78v-8.57h17.33Z"/><path class="cls-2" d="M285.81,507v17.48h-8.59v-26h26V507Z"/><path class="cls-2" d="M567.34,436.84v26h-8.65V445.54H541.28v-8.7Z"/><path class="cls-2" d="M804.93,498.4h8.53v43.51h-8.53Z"/><path class="cls-2" d="M334.48,463h21.65v21.65H334.47v-4.16H343V467.46h-4.21V476h-4.26Zm17.33,4.44H347.6v4.09h4.21Zm0,8.75H347.6v4.09h4.21Z"/><path class="cls-2" d="M426.75,533.4H431v8.54h4.31V529h-8.52v-4.36h21.61v21.65h-4.18v-8.49h-4.4v8.52h-13Zm17.26-.12v-4.21h-4.12v4.21Z"/><path class="cls-2" d="M457.34,559.63v-4.36h22V568.6h-8.48V573h8.5v4.28h-13v-8.55h-9v-4.4H475v-4.7Z"/><path class="cls-2" d="M409.14,524.7v8.52h4.28v-8.54h4.35V546.3h-4.25v-8.52h-4.34v8.54H396.07v-4.18h8.55v-4.4h-8.5v-4.4h8.56V524.7Z"/><path class="cls-2" d="M448.41,432.47v12.9H435.5v-4.26H444v-4.27H431.1v13h8.51v4.31H426.7V432.47Z"/><path class="cls-2" d="M558.61,616.88h13v22H550v-4.56h8.64Zm4.43,17.3h4.22V621.31H563Z"/><path class="cls-2" d="M541.09,647.91v4.15h-9v4.4H541v4.4h-8.87v4.34H541v4.36H519V665.3h8.57V647.91Z"/><path class="cls-2" d="M664.11,568.55v-8.89h26.4v8.89Z"/><path class="cls-2" d="M312.23,375.19h8.89v26h-8.89Z"/><path class="cls-2" d="M602.48,647.65v-8.53h26.39v8.53Z"/><path class="cls-2" d="M426.47,586.1H418V559.66h8.5Z"/><path class="cls-2" d="M233,541.94v-8.53h26.4v8.53Z"/><path class="cls-2" d="M461.71,480.33V471.8H488.1v8.53Z"/><path class="cls-2" d="M778.42,419.13h-8.53V392.75h8.53Z"/><path class="cls-2" d="M628.94,471.84v8.52H602.55v-8.52Z"/><path class="cls-2" d="M277.17,445.34V436.8h26v8.54Z"/><path class="cls-2" d="M334.42,454.06V441.21h4.23v8.48H343V441.2h13.09v12.86Zm13.16-8.51v4.16h4.13v-4.16Z"/><path class="cls-2" d="M303.27,533.44V542h-26v-8.53Z"/><path class="cls-2" d="M277.24,454.28h8.49v26.07h-8.49Z"/><path class="cls-2" d="M488.38,603.64h8.52v-4.26h-8.53v-13.1h12.91V607.9h-12.9Zm8.5-8.81v-4.15h-4.17v4.15Z"/><path class="cls-2" d="M672.69,480.38h-26v-8.56h26Z"/><path class="cls-2" d="M611.07,656.66v8.52H585v-8.52Z"/><path class="cls-2" d="M813.43,665.2H804.9v-26h8.53Z"/><path class="cls-2" d="M769.92,639.11h8.53v26h-8.53Z"/><path class="cls-2" d="M646.61,629.79v-8.52h26v8.52Z"/><path class="cls-2" d="M259.45,462.88h-8.52V436.8h8.52Z"/><path class="cls-2" d="M417.73,445.49H400.41v8.58H396.1V432.44h4.16V441h13.21v-8.54h4.26Z"/><path class="cls-2" d="M396.06,467.4v-4.35h21.66V484.7h-4.16v-8.52h-8.7v-4.46h8.54V467.4Z"/><path class="cls-2" d="M563,603.63h8.64v4.31H550V595.05h13Zm-4.45,0v-4.18h-4.15v4.18Z"/><path class="cls-2" d="M536.45,621.25H523.32v8.56H519V616.93h22V629.8h-4.55Z"/><path class="cls-2" d="M519,577.32v-22H541v4.17H523.3v17.84Z"/><path class="cls-2" d="M444,480.53v-4.39h-8.53v-4.39h8.54V463.1h4.32v21.62H435.46v-4.19Z"/><path class="cls-2" d="M479.43,603.63v4.31H457.34V595.05h4.27v8.58Z"/><path class="cls-2" d="M541.05,586.3v4.18h-8.94v8.68h-4.45v-8.55H519V586.3Z"/><path class="cls-2" d="M488.38,555.28h4.2V573h8.69v4.35H488.38Z"/><path class="cls-2" d="M435.49,494h4.19v8.52h4.39v-8.5h4.34v12.88H435.49Z"/><path class="cls-2" d="M426.7,515.71V502.82h4.21v8.52h17.46v4.37Z"/><path class="cls-2" d="M386.73,484.74H373.82v-4.22h8.64V471.8h4.27Z"/><path class="cls-2" d="M417.77,502.81v12.87H404.85v-4.19h8.56v-8.68Z"/><path class="cls-2" d="M396.05,498.17v-4.11h21.71v4.11Z"/><path class="cls-2" d="M475.05,586.25h4.32v12.94H466.51V595h8.54Z"/><path class="cls-2" d="M505.88,586.25H510V607.9h-4.15Z"/><path class="cls-2" d="M365.11,463h4.15v21.64h-4.15Z"/><path class="cls-2" d="M550,577.32V573.1h8.61v-8.66h4.32v12.88Z"/><path class="cls-2" d="M382.61,432.42h4.16v21.64h-4.16Z"/><path class="cls-2" d="M373.76,436.76h-8.65v-4.31H378v12.88h-4.26Z"/><path class="cls-2" d="M312.19,419.11v-8.87h8.91v8.87Z"/><path class="cls-2" d="M321.09,586.09H312.2v-8.52h8.89Z"/><path class="cls-2" d="M470.7,498.47v8.46h-8.95v-8.46Z"/><path class="cls-2" d="M655.15,568.59h-8.53v-8.88h8.53Z"/><path class="cls-2" d="M743.24,419.07v-8.86h8.59v8.86Z"/><path class="cls-2" d="M558.7,419.07v-8.86h8.59v8.86Z"/><path class="cls-2" d="M690.54,445.43h-8.86v-8.59h8.86Z"/><path class="cls-2" d="M681.61,507v-8.54h8.93V507Z"/><path class="cls-2" d="M312.22,533.4h8.91v8.52h-8.91Z"/><path class="cls-2" d="M690.57,471.83v8.53h-8.89v-8.53Z"/><path class="cls-2" d="M461.66,542v-8.49h8.95V542Z"/><path class="cls-2" d="M461.75,375.19h8.9v8.52h-8.9Z"/><path class="cls-2" d="M497.08,462.86v-8.52h8.56v8.52Z"/><path class="cls-2" d="M655.15,542h-8.53v-8.52h8.53Z"/><path class="cls-2" d="M708.23,480.31v-8.49h8.58v8.49Z"/><path class="cls-2" d="M813.47,480.38h-8.55v-8.57h8.55Z"/><path class="cls-2" d="M418,603.57v-8.51h8.54v8.51Z"/><path class="cls-2" d="M215.6,595h8.49v8.58H215.6Z"/><path class="cls-2" d="M611.08,533.46V542h-8.59v-8.49Z"/><path class="cls-2" d="M558.73,533.39h8.53V542h-8.53Z"/><path class="cls-2" d="M620.34,506.93v-8.51h8.59v8.51Z"/><path class="cls-2" d="M787.43,436.79H796v8.52h-8.52Z"/><path class="cls-2" d="M716.88,498.43v8.49h-8.59v-8.49Z"/><path class="cls-2" d="M734.27,507h-8.49v-8.59h8.49Z"/><path class="cls-2" d="M672.69,436.83v8.54h-8.52v-8.54Z"/><path class="cls-2" d="M646.6,445.36v-8.52h8.57v8.52Z"/><path class="cls-2" d="M532,436.83v8.48h-8.58v-8.48Z"/><path class="cls-2" d="M224.06,586.11h-8.49v-8.59h8.49Z"/><path class="cls-2" d="M664.17,533.38h8.51V542h-8.51Z"/><path class="cls-2" d="M813.46,445.38h-8.53v-8.56h8.53Z"/><path class="cls-2" d="M497.14,436.78h8.5v8.59h-8.5Z"/><path class="cls-2" d="M241.59,445.42h-8.48v-8.57h8.48Z"/><path class="cls-2" d="M224.12,533.42v8.51h-8.54v-8.51Z"/><path class="cls-2" d="M215.56,621.25h8.51v8.55h-8.51Z"/><path class="cls-2" d="M215.54,515.89h8.55v8.57h-8.55Z"/><path class="cls-2" d="M743.25,401.25v-8.52h8.56v8.52Z"/><path class="cls-2" d="M567.31,392.74v8.51h-8.59v-8.51Z"/><path class="cls-2" d="M620.37,656.61h8.52v8.55h-8.52Z"/><path class="cls-2" d="M259.48,480.37H251v-8.54h8.51Z"/><path class="cls-2" d="M444,665.24h-8.5v-8.58H444Z"/><path class="cls-2" d="M347.32,665.24h-8.46v-8.59h8.46Z"/><path class="cls-2" d="M251,656.61h8.52v8.52H251Z"/><path class="cls-2" d="M813.42,383.78h-8.51v-8.59h8.51Z"/><path class="cls-2" d="M778.46,375.21v8.51h-8.55v-8.51Z"/><path class="cls-2" d="M805,454.28h8.49v8.58H805Z"/><path class="cls-2" d="M751.82,383.77H743.3v-8.55h8.52Z"/><path class="cls-2" d="M585,375.14h8.48v8.58H585Z"/><path class="cls-2" d="M585,647.65v-8.53h8.52v8.53Z"/><path class="cls-2" d="M444,647.7H435.5v-8.56H444Z"/><path class="cls-2" d="M664.07,603.55v-8.48h8.58v8.48Z"/><path class="cls-2" d="M400.43,383.72v-8.51H409v8.51Z"/><path class="cls-2" d="M382.37,383.82h-8.49v-8.58h8.49Z"/><path class="cls-2" d="M813.42,629.84h-8.51v-8.59h8.51Z"/><path class="cls-2" d="M259.51,375.24v8.51h-8.59v-8.51Z"/><path class="cls-2" d="M769.88,629.79v-8.53h8.52v8.53Z"/><path class="cls-2" d="M215.49,383.74v-8.49h8.59v8.49Z"/><path class="cls-2" d="M787.37,462.83v-8.52h8.53v8.52Z"/><path class="cls-2" d="M629,621.31v8.5h-8.59v-8.5Z"/><path class="cls-2" d="M611.07,621.3v8.52h-8.53V621.3Z"/><path class="cls-2" d="M593.5,629.85H585v-8.58h8.49Z"/><path class="cls-2" d="M444.08,621.29v8.48H435.5v-8.48Z"/><path class="cls-2" d="M505.63,480.37h-8.54v-8.53h8.54Z"/><path class="cls-2" d="M409,656.66v8.51h-8.59v-8.51Z"/><path class="cls-2" d="M369.44,513.64v2.14h4.16v2.12h-6.39v-4.14H365v4.16h-2.08V507.18h6.35v2H365.1v2.26h8.56v2.2Z"/><path class="cls-2" d="M536.45,577.28V564.41H541v12.87Z"/><path class="cls-2" d="M541,608h-4.52V595.07H541Z"/><path class="cls-2" d="M554.17,555.31v13.27H550V555.31Z"/><path class="cls-2" d="M343.14,436.61v-4.14h13v4.14Z"/><path class="cls-2" d="M396.11,471.79h4.15v12.89h-4.15Z"/><path class="cls-2" d="M369.23,454.13h-4.16v-12.9h4.16Z"/><path class="cls-2" d="M409,502.82V507h-12.9v-4.15Z"/><path class="cls-2" d="M527.71,577.29V564.4h4.15v12.89Z"/><path class="cls-2" d="M404.81,454.08v-4.15h12.9v4.15Z"/><path class="cls-2" d="M430.86,484.75h-4.15V471.86h4.15Z"/><path class="cls-2" d="M373.88,463H378v13h-4.09Z"/><path class="cls-2" d="M523.15,608H519v-13h4.13Z"/><path class="cls-2" d="M571.68,586.3v4.16h-12.9V586.3Z"/><path class="cls-2" d="M373.62,493.94h-4.19v2.13h4.19v6.53h-6.37v-2h4.18v-2.19h-4.12v-6.49h6.31Z"/><path class="cls-2" d="M338.64,511.41H343v2.12H332.25V507.2h6.39Zm-2.24,0v-2h-2v2Z"/><path class="cls-2" d="M354.16,496.18h4.17v6.43l-2.08.09v-4.33H352v-6.5h6.33v2h-4.16Z"/><path class="cls-2" d="M332.28,496.22h6.35v6.33h-6.35Zm2.09,4.14h2v-2.05l-2,.09Z"/><path class="cls-2" d="M382.57,491.83h6.36v6.39h-2V494l-2.19-.11v4.29h-2.14Z"/><path class="cls-2" d="M384.64,507.18v2h-4.21v2.25h4.15v2.08h-6.34v-6.31Z"/><path class="cls-2" d="M348.63,521.35h3.11v5.31h-5.22v-5.3l.37-.17.58,1.07.66,1.18c.14-.4.31-.8.43-1.21A4.7,4.7,0,0,0,348.63,521.35Z"/><path class="cls-2" d="M390.06,544.35v5.23h-5.27v-5.23Zm-3.32,1.07-.54-.16a3.62,3.62,0,0,0-.39,1.43c.1.66-.69,1.8.93,1.93Z"/><path class="cls-2" d="M473.07,670.8l-.28,2.08-.42.14c-.36-.79-.71-1.58-1.24-2.76-.36,1.28-.56,2-.77,2.76l-.55-.13v-5.28H475v5.25l-.44.16-1.06-2.36Z"/><path class="cls-2" d="M485.88,636.06c.13,1.27.22,2.09.32,3,1.71-.29.47-1.78,1.21-2.5h2.84c.74,2.2-1.51.88-2.17,2.08l2.23.61v3h-5.17l-.23-.43,2.32-1.1-.15-.42L485,640C485.15,638.8,484.44,637.48,485.88,636.06Z"/><path class="cls-2" d="M364.86,502.62h-2V491.83h2Z"/><path class="cls-2" d="M389,515.93v2H378.2l-.1-2Z"/><path class="cls-2" d="M390.06,536.69v3L388,540l-.14.42,2.36,1.06-.15.45H387a4.7,4.7,0,0,0-.1-.84c-.11-.41-.29-.8-.44-1.2l-.64,1.19a1.63,1.63,0,0,1-1,.89v-5.22l.44-.23,1.11,2.32.42-.15.23-2Z"/><path class="cls-2" d="M494.66,647.82l-1.9-.09v-3.11H498l.17.37-1.06.6c-.4.22-.8.42-1.19.64.39.15.78.33,1.18.45a4.8,4.8,0,0,0,.85.06v3.11h-3Z"/><path class="cls-2" d="M374.75,529.08v5.23h-5.3v-3.09l.38-.17c.21.34.42.67.62,1s.41.81.62,1.22a5.56,5.56,0,0,0,.45-1.36c.08-.9,0-1.81,0-2.85Z"/><path class="cls-2" d="M536.47,638.93v-4.51H541v4.51Z"/><path class="cls-2" d="M467.52,657.55h-5.77v-3.13a4.58,4.58,0,0,0,.83-.09c.41-.11.8-.29,1.2-.44l-1.19-.64a1.65,1.65,0,0,1-.9-1h3.11v3l-2.15.56.13.62h3.6v-4.21l.75-.07C467.86,653.78,467.24,655.62,467.52,657.55Z"/><path class="cls-2" d="M461.78,644.6h5.58v3.08l-.59.17c-.2-.68-.4-1.36-.67-2.26-.69,0-1.52,0-2.35,0a3.51,3.51,0,0,0-1,.44,6.78,6.78,0,0,0,1,.62,3.84,3.84,0,0,0,1,.07v3.11h-3Z"/><path class="cls-2" d="M527.72,638.93v-4.51h4.18v4.51Z"/><path class="cls-2" d="M519,634.37h4.15v4.55H519Z"/><path class="cls-2" d="M454.11,659.92h5.26l.14.63-4.53.69.14.67h4.19v3.3l-.59.15-.58-2.18h-3l-.19.51,2.35,1-.12.47h-3.1Z"/><path class="cls-2" d="M496,663.15c-.09.79-.16,1.43-.23,2.07l-.43.14-1.23-2.74-.82,2.76-.59-.19v-5.28H498l.2.54-2.57.84,1.29.71,1.18.64c-.4.15-.79.32-1.2.44A4.58,4.58,0,0,1,496,663.15Z"/><path class="cls-2" d="M505.65,623.42v3.11h-3.09c-.07-.7-.13-1.34-.19-2l-.49-.18-1,2.34-.46-.13V621.3h5.25l.15.61-4.54.68.13.62,2,.25.28,2,.43.13,1.07-2.36Z"/><path class="cls-2" d="M469.65,615.77l2.05-.12.24-2H475v3l-2.58.69,2.65,1.21c-.81.16-1.61.34-2.43.48a3.6,3.6,0,0,1-.77-.1,5.35,5.35,0,0,0-.07-1.1,4.59,4.59,0,0,0-.51-.95c-.19.3-.39.59-.56.9s-.41.82-.61,1.24a6.37,6.37,0,0,1-.47-1.35A13.91,13.91,0,0,1,469.65,615.77Z"/><path class="cls-2" d="M505.83,577.33v-4.15H510v4.15Z"/><path class="cls-2" d="M400.28,511.57v4.15h-4.15v-4.15Z"/><path class="cls-2" d="M571.68,573.15v4.14H567.5v-4.14Z"/><path class="cls-2" d="M404.81,436.62v-4.16H409v4.16Z"/><path class="cls-2" d="M571.64,559.48h-4.16v-4.15h4.16Z"/><path class="cls-2" d="M562.86,559.52h-4.09v-4.21h4.09Z"/><path class="cls-2" d="M510,559.47h-4.17v-4.15H510Z"/><path class="cls-2" d="M497.08,559.43v-4.14h4.15v4.14Z"/><path class="cls-2" d="M373.82,454.09v-4.17H378v4.17Z"/><path class="cls-2" d="M550,586.26h4.17v4.15H550Z"/><path class="cls-2" d="M444.26,449.9h4.13v4.22h-4.13Z"/><path class="cls-2" d="M382.59,463.05h4.14v4.16h-4.14Z"/><path class="cls-2" d="M430.87,467.25h-4.16V463.1h4.16Z"/><path class="cls-2" d="M470.66,586.27v4.15h-4.18v-4.15Z"/><path class="cls-2" d="M497.15,564.34h4.09v4.21h-4.09Z"/><path class="cls-2" d="M510,568.59h-4.15v-4.18H510Z"/><path class="cls-2" d="M334.44,432.42h4.15v4.18h-4.15Z"/><path class="cls-2" d="M404.81,484.7v-4.14H409v4.14Z"/><path class="cls-2" d="M523.17,656.65v4.16H519v-4.16Z"/><path class="cls-2" d="M531.94,603.81v4.13h-4.22v-4.13Z"/><path class="cls-2" d="M519,647.86h4.15V652H519Z"/><path class="cls-2" d="M435.45,467.23v-4.14h4.18v4.14Z"/><path class="cls-2" d="M426.71,494h4.15v4.18h-4.15Z"/><path class="cls-2" d="M571.68,564.42v4.16h-4.15v-4.16Z"/><path class="cls-2" d="M567.47,599.19v-4.13h4.17v4.13Z"/><path class="cls-2" d="M400.22,528.87h-4.13v-4.21h4.13Z"/><path class="cls-2" d="M490.33,657.53h-3l-.25-2-2-.23v-3l.44-.23,1.09,2.31.43-.13.22-2h3.08Zm-1.49-.92.49-.17a23.17,23.17,0,0,0,0-2.5c0-.24-.5-.42-.77-.63a17.21,17.21,0,0,0-.25,2.25C488.29,655.91,488.64,656.26,488.84,656.61Z"/><path class="cls-2" d="M554.15,629.83H550v-4.17h4.13Z"/><path class="cls-2" d="M531.94,625.63v4.17h-4.2v-4.17Z"/><path class="cls-2" d="M457.37,573.14h4.17v4.15h-4.17Z"/><path class="cls-2" d="M457.39,586.24h4.12v4.21h-4.12Z"/><path class="cls-2" d="M550,616.88h4.17V621H550Z"/><path class="cls-2" d="M512,654.74c.32-1.21.51-2,.71-2.68l.58.14v5.16c-2.36.65-4.88.37-5.31-.86h4.32c-1.12-1.79-2.9-.55-4.84-1.59l2.62-.83a3.08,3.08,0,0,1,.09-.69c.11-.41.29-.8.44-1.2l.64,1.18C511.42,653.72,511.61,654.07,512,654.74Z"/><path class="cls-2" d="M482.67,649.88H479.6l-.19-.5,2.73-1.15c-1.83-.92-3.65.16-4.89-.86l.12-.69h4.25l.14-.75-4.56-.69.17-.63h5.3Z"/><path class="cls-2" d="M455.14,617.79h3c.76-1.34-.54-3.14,1.2-4.69v5.76h-5.26v-3.1l1.95-.11.34-2.42c1.5,1.1.63,2.36.84,3.34l-2.21.61Z"/><path class="cls-2" d="M379.13,521.36h3.35a16.67,16.67,0,0,1,0,2,5,5,0,0,1-.46,1.17c-.2-.35-.43-.69-.6-1s-.3-.79-.45-1.19l-.57.11v4.25h-3.23v-5.3l.6-.15.69,4.53.69-.14Z"/><path class="cls-2" d="M485.67,628.75l.63,2.19.48.16.59-2.14h2.94v5.26l-.61.14-.69-4.52-.73.13v4.24l-.73.16c-.19-.68-.39-1.37-.63-2.2l-1.81-.13v-3.1Z"/><path class="cls-2" d="M479.55,616.69c0-.73-.08-1.32-.11-1.87l-2.2-.57.13-.62h5.28v5.24h-3l-.23-.43,2.32-1.1-.14-.42Z"/><path class="cls-2" d="M494.8,671.75v-4.19H498v5.59c-2-1.16.06-3.63-2-4.92v4.58h-3.35c0-.78,0-1.55,0-2.31,0-.29.29-.55.44-.82a5,5,0,0,1,.61.86,13.24,13.24,0,0,1,.48,1.38Z"/><path class="cls-2" d="M513.35,618.87h-5.29v-5.18l.42-.22,1.1,2.31.42-.13c.07-.65.14-1.29.23-2h3l.19.5-2.09.8c0,.38-.12,1-.2,1.64a2.1,2.1,0,0,1-.3.19l-1.77.66c.63.16,1.26.35,1.9.47.83.15,1.67.23,2.51.34Z"/><path class="cls-2" d="M336.61,522l-2.19.6-.16.48,2.13.6v2.94h-3.07l-.15-.44,2.35-1.07-.14-.51h-4.31c0-1,0-1.83,0-2.65,0-.23.28-.43.44-.65.2.23.5.41.6.67a11.72,11.72,0,0,1,.39,1.55l.56-.07.3-2.09h3Z"/><path class="cls-2" d="M374.71,542.06c-.93,0-1.72,0-2.5,0-.22,0-.42-.29-.64-.44.22-.21.41-.5.67-.61a13.38,13.38,0,0,1,1.57-.41l-.15-.58-2-.23-.13-1.87-2.21-.59.14-.6h5.29Z"/><path class="cls-2" d="M340.06,523.48h4v3.17l-.6.18-.65-2.19-.47-.16-.59,2.13h-2.94v-5.25l.58-.16Z"/><path class="cls-2" d="M469.84,636.56H475c.55,2-1.15,1.09-1.93,1.56l-.23,1.93-1.87.13-.57,2.19-.54-.09Z"/><path class="cls-2" d="M467.39,642.2h-3.47v-5.63h3.46c.37,2.32-1.92.74-2.56,2l2.72.92-.14.49-2.44.27-.14.5,2.73.92Z"/><path class="cls-2" d="M454.07,654.43h5.28v3.06H454l-.16-.42,2.74-1.24-2.74-.79Z"/><path class="cls-2" d="M489.42,646.13l-2.35-1.07.14-.44h3.11v5.17l-.49.18-.8-2.07h-2.75l-.59,2.13-.58-.11V646.7h4.17Z"/><path class="cls-2" d="M500.4,644.57h3l.57,2.2.48-.15.66-2.2.59.17v5.2l-.51.18-.81-2.08-1.73-.21-.29-2-.42-.13-1.06,2.35-.44-.14Z"/><path class="cls-2" d="M343.46,534.47l-.57-2.16h-2.95l-.21.51,2.35,1-.12.47h-3.1v-3.07h4l.62-2.34.6.16v5.33Z"/><path class="cls-2" d="M359.42,531.23v3.09h-3.05l-.25-2-2-.23v-3.18c.77,0,1.48-.05,2.18,0a3.52,3.52,0,0,1,1,.47,3.93,3.93,0,0,1-.88.58,5.42,5.42,0,0,1-1.21.15l-.15.6,2.09.55.53,2.07.5-.13.61-2.2Z"/><path class="cls-2" d="M505.07,663.17l-.88-2.35-.54.13v4.19h-3.3l-.14-.52c.47-.15,1-.27,1.41-.45a6.53,6.53,0,0,0,.82-.45,4.85,4.85,0,0,0-.84-.61,13.13,13.13,0,0,0-1.38-.46l.14-.54,2-.22.15-2h3.08V663Z"/><path class="cls-2" d="M494.89,655.37c-.05-.68-.09-1.27-.13-1.87l-2.21-.66.12-.52H498v5.2l-.59.18-.68-2.2Z"/><path class="cls-2" d="M478.5,632.24l-.23,2-.63.11c-.15-1-.31-2-.5-3.24h4.24c.27-.91.49-1.63.71-2.35l.53.12v5.32h-3l-.17-.44,2.36-1.06-.14-.45Z"/><path class="cls-2" d="M363.37,531.19l1-2.33.5.14v4.15l2.56.36c-1.13,1.48-2.38.65-3.48.85l-.22-2.05-.46-.16c-.17.4-.32.81-.52,1.2s-.42.69-.63,1a3,3,0,0,1-.44-1c-.05-1.39,0-2.78,0-4.44C363.42,529,362.31,530.65,363.37,531.19Z"/><path class="cls-2" d="M358.33,515.94v2h-6.39l-.1-2Z"/><path class="cls-2" d="M332.15,515.89h6.47v2h-6.38Z"/><path class="cls-2" d="M358.34,507.19v2h-6.41v-2Z"/><path class="cls-2" d="M347.55,513.55v-6.36h2v6.36Z"/><path class="cls-2" d="M502.57,642.22v-5.65h3v5.65l-.36.17c-.2-.35-.53-.68-.56-1-.09-.9,0-1.82-.06-2.72,0-.22-.28-.43-.43-.65-.21.22-.58.42-.6.66-.07.9,0,1.82-.06,2.72a3.68,3.68,0,0,1-.39,1Z"/><path class="cls-2" d="M354,500.6v2h-6.39v-2Z"/><path class="cls-2" d="M380.21,496.26v6.34h-2v-6.34Z"/><path class="cls-2" d="M341,491.83h2v6.38h-2Z"/><path class="cls-2" d="M332.23,491.82h6.38v2h-6.38Z"/><path class="cls-2" d="M464.82,671.38l2.73.93-.16.51h-5.7l-.15-.59,2.16-.62.21-1.85,2.23-.18.59-2.2.6.14v3.11l-2.37.24Z"/><path class="cls-2" d="M344.1,542h-5.28v-3h5.59c-1.16,2-3.63,0-4.86,1.86l4.68.43Z"/><path class="cls-2" d="M508,665.17V662.1l.59-.17.82,2.7,1.22-2.72.42.14.28,2.08.42.14,1.07-2.36.44.15v3.11Z"/><path class="cls-2" d="M454.05,626.54V621.3h3.13l.14.58-2.26.62a14.57,14.57,0,0,0,0,1.86,5,5,0,0,0,.47,1.16c.2-.35.43-.69.6-1.06s.29-.78.44-1.18l.49.11v3.15Z"/><path class="cls-2" d="M382.37,542.21l-3.23-.46.11-.64,2-.24v-3c-1.32-.77-3.12.53-4.68-1.19h5.77Z"/><path class="cls-2" d="M490.34,615.78v3.1h-5.23v-3.11l.4-.15,1.06,2.35.43-.12.28-2.06.53-.15a13.08,13.08,0,0,0,.45,1.38,4.91,4.91,0,0,0,.62.84,6.78,6.78,0,0,0,.45-.84c.18-.45.31-.93.46-1.39Z"/><path class="cls-2" d="M346.51,543.91c1.75,1.46.41,3.26,1.46,5l.9-2.38h2.9l.15.59-2.2.6c0,.21,0,.5-.05.79s0,.6,0,1h-3.15Z"/><path class="cls-2" d="M361.79,526.59v-5.22l.57-.17.68,2.2.48.15.58-2.14h3l.16.58-2.17.62-.2,1.82-1.88.23-.59,2.19Z"/><path class="cls-2" d="M379.28,534.32v-5.26h3.14l.15.6-2.18.58v3l.52.19.94-2.34.47.12v3.15Z"/><path class="cls-2" d="M487.24,626.49v-5.23l.59-.17.67,2.19,1.84.16v3Z"/><path class="cls-2" d="M471.84,657.48v-4l-2.16-.89c.75-.16,1.5-.33,2.26-.47a5,5,0,0,1,.94.05v4.23l.6.17c.18-.4.35-.81.55-1.2s.4-.69.61-1a5.39,5.39,0,0,1,.46,1.16,15.54,15.54,0,0,1,0,2Z"/><path class="cls-2" d="M495.82,618.91h-3.07v-5.32l.57-.16.63,2.2,1.87.14Z"/><path class="cls-2" d="M474.4,665.36c-.18-.66-.37-1.31-.62-2.24h-4.06l-.16-.57,2.73-1.23-2.72-.85.17-.57h3.1l.16,2,2,.25v3.11Z"/><path class="cls-2" d="M478.41,652.14v4.33l.76.11c.11-.78.21-1.56.33-2.34s.22-1.44.34-2.16l.64.14v5.29h-3C477,654.07,477.18,652.63,478.41,652.14Z"/><path class="cls-2" d="M454.14,639.24l2.22-.61c-.75-1.2-2.83.17-2.28-2h3.07v3.48l-1.84.11c-.22.76-.44,1.49-.65,2.22l-.52-.12Z"/><path class="cls-2" d="M467.38,613.47v5.38h-3.61c.33-1.64,1.63-.59,2.46-1.2v-2.92l-2.75-.29C464.7,613,466.06,613.77,467.38,613.47Z"/><path class="cls-2" d="M482.05,642.39l-.59-2.14-1.85-.23v-3.47l.52-.15.91,2.72.42-.15.55-2.55.59.1v5.61Z"/><path class="cls-2" d="M482.69,667.58v3.08h-3.06v-3.08Z"/><path class="cls-2" d="M494.91,631.12H498l.15.44-2.74,1.23,2.74.83-.17.55h-5.32l-.15-.6,2.16-.6Z"/><path class="cls-2" d="M356.34,546.44c.89,0,1.61,0,2.33,0,.28,0,.54.29.81.45a8.27,8.27,0,0,1-.85.61c-.41.22-.86.38-1.29.56.43.18.88.34,1.29.56a6.29,6.29,0,0,1,.85.61c-.27.16-.54.44-.81.44-1.5,0-3,0-4.51,0l-.19-.64,2.17-.72Z"/><path class="cls-2" d="M461.72,621.25h3.06v3.08h-3.06Z"/><path class="cls-2" d="M471.9,647.69l-.12-2-2.39-.34c1.06-1.56,2.36-.52,3.3-.94.24.92.43,1.62.62,2.32l.49-.18.58-2.18.58.12v3.15Z"/><path class="cls-2" d="M489.42,663.45l-2.18-.56v-3l.58-.19c.21.67.43,1.34.69,2.17l1.83.18v3h-2.93c0-.77,0-.77,1.86-1.18Z"/><path class="cls-2" d="M505.18,634.37,504,631.62c-.36,1.28-.56,2-.76,2.75l-.55-.12v-3.16l1.75-.14.72-2.21.55.17v5.2Z"/><path class="cls-2" d="M505.66,654.44v3.09H502.6v-5.3l.35-.18c.2.3.54.59.58.91.09.71,0,1.46.05,2.18a7,7,0,0,0,.45,1.36c.21-.41.43-.81.63-1.22s.29-.68.43-1Z"/><path class="cls-2" d="M500.4,613.6h3.08v3.06H500.4Z"/><path class="cls-2" d="M364.9,548.36l2.34.63-.12.57h-5.29l-.2-.49,2.15-.71c.63-1.15-.61-2.94,1.12-4.06Z"/><path class="cls-2" d="M482.82,623.38c-.57,1.22-1,1.28-5.38,1v-3.08h3l.23.43-2.32,1.11.15.56Z"/><path class="cls-2" d="M505.68,669.83v3h-5.33l-.15-.59,2.09-.56c.18-.69.36-1.39.55-2.09l.59.14.27,2.07.42.14,1.06-2.35Z"/><path class="cls-2" d="M331.19,544.32h3l.18.55-2.08.77v2.77l2.15.58-.14.59h-3.1Z"/><path class="cls-2" d="M459.37,667.6c-.22.64-.22.64-4.31,1.13,0,1.09,0,2.22,0,3.35,0,.28-.28.54-.43.82-.21-.28-.59-.55-.6-.84-.06-1.44,0-2.88,0-4.46Z"/><path class="cls-2" d="M495.81,621.27v3.09l-1.82.15c-.24.74-.49,1.48-.74,2.21l-.51-.16v-5.33l.45-.14,1.23,2.74c.36-1.27.57-2,.78-2.73Z"/><path class="cls-2" d="M474.38,626.71l-.57-2.16-.45-.16a10.46,10.46,0,0,1-.45,1.37,4.92,4.92,0,0,1-.61.85,2.48,2.48,0,0,1-.44-.83c-.06-.71,0-1.44,0-2.27l2-.25a1.37,1.37,0,0,0,.19-.3l.66-1.76a11.32,11.32,0,0,1,.46,1.89c.07,1.13,0,2.27,0,3.41Z"/><path class="cls-2" d="M467.46,628.78c0,1,.05,1.63,0,2.29a3.51,3.51,0,0,1-.44,1,7,7,0,0,1-.62-1,4.8,4.8,0,0,1-.07-1.12h-4.6l-.06-.74C463.41,628.35,465.39,629.07,467.46,628.78Z"/><path class="cls-2" d="M496.08,640.41c-.19.68-.37,1.33-.56,2l-.6-.15v-5.79c1.68.3.61,1.62,1.23,2.45l1.7.22.27.46Z"/><path class="cls-2" d="M466.31,660.86h-4.67c.44-1.18,1.85-1.36,5.82-.88a20.65,20.65,0,0,1,0,2.08,3.43,3.43,0,0,1-.45,1,6.34,6.34,0,0,1-.61-1A5,5,0,0,1,466.31,660.86Z"/><path class="cls-2" d="M373.51,525.52l.61-2.15.59.16v3.11h-5.77C370.51,525,372.26,526.12,373.51,525.52Z"/><path class="cls-2" d="M330.69,541.94c1.51-1.65,3.26-.51,4.56-1.12.19-.71.37-1.41.55-2.12l.61.14v3.1Z"/><path class="cls-2" d="M331.16,536.6c1.62,0,3.06,0,4.51,0,.28,0,.55.39.83.59-.27.16-.54.43-.82.44-1.13.05-2.26,0-3.27,0l-.65,2.26-.6-.16Z"/><path class="cls-2" d="M347.63,540.79l2.13.55-.16.61h-3.1v-5.77C348.17,537.74,347,539.5,347.63,540.79Z"/><path class="cls-2" d="M462.77,615.46l2.23.63-.17.59-1.89.2a2,2,0,0,0-.19.34l-.66,1.73a11.65,11.65,0,0,1-.45-1.71,15.15,15.15,0,0,1,0-2.52,4.68,4.68,0,0,1,.43-1.18c.21.4.46.78.63,1.19A2.81,2.81,0,0,1,462.77,615.46Z"/><path class="cls-2" d="M456.21,631.9c0-.56-.07-1.15-.11-1.83l-2.08-.3-.1-.62,3.15-.48.28,2.2,2.06.29C458.93,632.27,458.76,632.31,456.21,631.9Z"/><path class="cls-2" d="M331.8,531.06l.54,2.08c1.27.69,3-.56,4.64,1.14h-5.79V531.2Z"/><path class="cls-2" d="M381.8,547.61l-1.05-2.82-.89,2.82-.56-.17v-3.1h3.05v3.12Z"/><path class="cls-2" d="M346.48,534.27V529c.69.23.69.23,1.13,4.12l2.13.55-.13.6Z"/><path class="cls-2" d="M510.24,626.57v-5.3l.56-.18.68,2.16,1.88.25.13.59-2.09.53-.54,2.09Z"/><path class="cls-2" d="M371.61,544.32h3.1v3l-.43.23-1.16-2.44c-.47,1-.79,1.68-1.11,2.35-.15-.75-.32-1.51-.46-2.27A4.76,4.76,0,0,1,371.61,544.32Z"/><path class="cls-2" d="M478.78,662c1,0,2.17,0,3.3,0,.23,0,.44.38.66.59-.21.15-.42.44-.63.44-1.55,0-3.1,0-4.73,0v-3l.5-.21Z"/><path class="cls-2" d="M507.87,649.23l1.93-.51,1-2,.72,2,2,.63-.17.56H508Z"/><path class="cls-2" d="M369.27,524l2.72-1.23-2.71-.84.16-.57h3.11v3h-3.12Z"/><path class="cls-2" d="M364.25,542.14l-.54-2.09-2.09-.53.13-.6,1.9-.22.62-2.19.54.13V542Z"/><path class="cls-2" d="M462.6,636.55v5.69l-.64.12a7.91,7.91,0,0,1-.31-1.78c.08-1.37-.37-2.88.3-4.15Z"/><path class="cls-2" d="M461.69,665.16c1.18-1.56,2.81-.75,4.23-.95a5.28,5.28,0,0,1,1.6.34l-.13.61Z"/><path class="cls-2" d="M341.89,549.63h-3.17a19,19,0,0,1,0-2,4.5,4.5,0,0,1,.47-1.15c.2.4.43.8.6,1.22a2.65,2.65,0,0,1,.06.69l2.21.63Z"/><path class="cls-2" d="M510.08,632.35l-2.22-.64.17-.6h3.19a15.92,15.92,0,0,1,0,2,5,5,0,0,1-.43,1.19c-.21-.4-.46-.78-.63-1.19A2.39,2.39,0,0,1,510.08,632.35Z"/><path class="cls-2" d="M344.19,546.49a17.36,17.36,0,0,1,0,2.06,4.33,4.33,0,0,1-.48,1.14,7.38,7.38,0,0,1-.58-1.07,3.4,3.4,0,0,1-.06-.84l-2.11-.86c.74-.16,1.49-.33,2.24-.47A5.58,5.58,0,0,1,344.19,546.49Z"/><path class="cls-2" d="M512.44,634.21v-5.32c1.51,1.12.79,2.69.94,4.06a4.07,4.07,0,0,1-.4,1.41Z"/><path class="cls-2" d="M335.36,546.17l.22-1.87.63-.1.48,3.19h-3.32l-.19-.52Z"/><path class="cls-2" d="M500.29,634.53c0-1.89,0-3.46,0-5,0-.22.28-.43.43-.65.2.16.58.31.59.47,0,1.57,0,3.14-.08,4.71C501.24,634.14,500.89,634.23,500.29,634.53Z"/><path class="cls-2" d="M354.12,525.79h5.33c-1.2,1.53-2.83.74-4.26.93-.38,0-.81-.31-1.22-.48Z"/><path class="cls-2" d="M459.31,621.25v5.32c-1.51-1.12-.78-2.69-.94-4.06a4.07,4.07,0,0,1,.4-1.41Z"/><path class="cls-2" d="M493.92,630.11l-.57,2.08-.59-.14V629h3.06l.15.58Z"/><path class="cls-2" d="M477.37,626.5c1.2-1.51,2.83-.74,4.26-.92.38-.05.81.31,1.22.48l-.16.44Z"/><path class="cls-2" d="M369.42,549.59c1.2-1.52,2.83-.75,4.26-.93.38,0,.81.31,1.22.48l-.16.45Z"/><path class="cls-2" d="M377.17,538.63l3.18.47-.1.63-1.91.24a1.45,1.45,0,0,0-.19.29l-.63,1.78a13.5,13.5,0,0,1-.48-1.87A7.06,7.06,0,0,1,377.17,538.63Z"/><path class="cls-2" d="M493.36,654.27l.55,2.08,2,.8c-.75.15-1.5.33-2.25.46a4.59,4.59,0,0,1-.86,0v-3.12Z"/><path class="cls-2" d="M356.6,542.15l-.56-2-2.09-.69.16-.54h3.09V542Z"/><path class="cls-2" d="M456.07,647.05l2.09-.54c.19-.7.37-1.4.56-2.09l.61.14v3.1h-3.11Z"/><path class="cls-2" d="M454.08,647.72v-3.1h3.1l.15.6-2.09.55c-.18.69-.37,1.4-.55,2.11Z"/><path class="cls-2" d="M365.82,525.62l.66-2.24.59.19v3.18c-.75,0-1.45,0-2.15,0a3.36,3.36,0,0,1-1-.43,5.6,5.6,0,0,1,1-.62A2.62,2.62,0,0,1,365.82,525.62Z"/><path class="cls-2" d="M389,533l.22-1.87.63-.1c.15,1,.3,2,.48,3.19H387l-.19-.52Z"/><path class="cls-2" d="M475,631.07v3.1h-3.1l-.15-.6,2.1-.55.55-2.11Z"/><path class="cls-2" d="M454.06,634.24v-3.13l.59-.17.66,2.18c-.08-.09,0,0,0,0,.56.44,2-.65,1.75.87C457,634.19,455.23,634.15,454.06,634.24Z"/><path class="cls-2" d="M461.68,631a17.39,17.39,0,0,1,2.06,0,4.36,4.36,0,0,1,1.14.49,8.42,8.42,0,0,1-1.07.57,3,3,0,0,1-.85.06l-.85,2.11c-.16-.74-.34-1.49-.48-2.24A5.89,5.89,0,0,1,461.68,631Z"/><path class="cls-2" d="M500.41,652.22c1.52,1.2.75,2.83.93,4.26.05.37-.31.81-.48,1.21l-.45-.16Z"/><path class="cls-2" d="M349.84,537.86l-.55,2.1-.61-.15v-3.1h3.11l.12.62Z"/><path class="cls-2" d="M485,669.74h3.13l.17.59-2.18.66c.09-.08,0,0,0,0-.45.55.65,2-.87,1.74C485.06,672.71,485.1,670.91,485,669.74Z"/><path class="cls-2" d="M384.8,526.67v-5.32c1.51,1.13.78,2.69.94,4.06a4.07,4.07,0,0,1-.4,1.41Z"/><path class="cls-2" d="M341,502.59v-1.95h2v1.95Z"/><path class="cls-2" d="M382.55,502.56v-2h2v2Z"/><path class="cls-2" d="M389,500.65v2l-2,.09v-2.05Z"/><path class="cls-2" d="M341,507.15h2v2h-2Z"/><path class="cls-2" d="M373.65,509.19h-2v-2h2Z"/><path class="cls-2" d="M349.66,491.9c0,.44,0,.75,0,1.05s0,.48,0,.82a8.49,8.49,0,0,1-1,.16,7.42,7.42,0,0,1-1,0v-2Z"/><path class="cls-2" d="M511,637.94c-1-.39-2.64.89-3.18-1.23C510.89,636.2,511.14,636.3,511,637.94Z"/><path class="cls-2" d="M387,507.16h1.94v2H387Z"/><path class="cls-2" d="M347.5,517.86v-2l2-.09v2.05Z"/><path class="cls-2" d="M341,515.9h2v2h-2Z"/><path class="cls-2" d="M387,513.53v-1.95h2v1.95Z"/><path class="cls-2" d="M356.37,511.47h2l.09,2h-2.05Z"/><path class="cls-2" d="M353.9,513.6h-2l-.09-2h2.06Z"/><path class="cls-2" d="M380.2,493.87h-2v-2h2Z"/><path class="cls-2" d="M347.56,498.22v-2h2v2Z"/><path class="cls-2" d="M463.74,633.31h3.65l.12.65a7.37,7.37,0,0,1-1.78.3C465.05,634.22,464,634.75,463.74,633.31Z"/><path class="cls-2" d="M463.73,626.13c.35-.2.7-.55,1-.55a21.11,21.11,0,0,1,2.62.25c-.21.27-.4.74-.64.76-.95.09-1.91,0-2.87,0Z"/><path class="cls-2" d="M477.11,642.19c1.14-1.36,2.9-1.26,3.47,0Z"/><path class="cls-2" d="M485.18,623.44c1.15.43,1.27,2.18,0,3.36Z"/><path class="cls-2" d="M366.58,536.52c.19.35.55.69.55,1a15.91,15.91,0,0,1-.24,2.26c-.27-.21-.74-.4-.77-.64a20.79,20.79,0,0,1,0-2.5Z"/><path class="cls-2" d="M505.66,618.86a4.75,4.75,0,0,1-1.05.11c-.71-.11-1.4-.29-2.11-.45.1-.19.2-.56.29-.56,1,0,2,.08,3,.13Z"/><path class="cls-2" d="M513.28,639v3.24l-.45.15c-.17-.41-.53-.84-.47-1.22C512.46,640.44,511.75,639.32,513.28,639Z"/><path class="cls-2" d="M511.42,639.15c-1.14,1.36-2.9,1.26-3.47,0Z"/><path class="cls-2" d="M500.87,642.39c-.19-.35-.55-.69-.55-1a15.76,15.76,0,0,1,.24-2.26c.27.21.74.4.77.64a20.66,20.66,0,0,1,0,2.49Z"/><path class="cls-2" d="M358.54,542v-3.2c1.61.13.83,1.27.93,1.92a3.53,3.53,0,0,1-.39,1.42Z"/><path class="cls-2" d="M469.76,657.53a4.73,4.73,0,0,1-.1-1c.11-.7.29-1.4.44-2.1.2.09.57.19.57.28,0,1-.08,2-.14,3Z"/><path class="cls-2" d="M370.33,538.7V542l-.55.14a4.51,4.51,0,0,1-.39-1.42C369.43,540,368.91,539,370.33,538.7Z"/><path class="cls-2" d="M481.81,657.67v-3.25l.45-.15c.17.41.53.85.48,1.22C482.63,656.22,483.35,657.33,481.81,657.67Z"/><path class="cls-2" d="M475,639.1v3.2c-1.62-.12-.84-1.26-.94-1.92a4,4,0,0,1,.39-1.42Z"/><path class="cls-2" d="M458.47,642.36v-3.25l.45-.15c.17.41.53.84.48,1.22C459.29,640.91,460,642,458.47,642.36Z"/><path class="cls-2" d="M469.78,650v-3.24l.45-.16c.17.41.52.85.47,1.23C470.6,648.56,471.31,649.68,469.78,650Z"/><path class="cls-2" d="M386.66,524.45c1.14-1.36,2.91-1.27,3.47,0Z"/><path class="cls-2" d="M357.2,521.36v3.2c-1.62-.13-.83-1.27-.93-1.93a3.68,3.68,0,0,1,.38-1.41Z"/><path class="cls-2" d="M355,524.61c-1.53-.34-.82-1.45-.92-2.17-.05-.38.3-.82.47-1.23l.45.16Z"/><path class="cls-2" d="M377.14,534.45v-3.24l.46-.16c.17.41.52.85.47,1.23C378,533,378.68,534.12,377.14,534.45Z"/><path class="cls-2" d="M340.92,521.41h3.2l.14.54c-.47.14-1,.46-1.42.39C342.19,522.24,341,523,340.92,521.41Z"/><path class="cls-2" d="M472.84,622.15a5.41,5.41,0,0,1-1,.1c-.71-.11-1.41-.29-2.11-.44.1-.2.2-.57.29-.57,1,0,2,.08,3,.14Z"/><path class="cls-2" d="M351.9,545a10.06,10.06,0,0,1-1.78.31,7.71,7.71,0,0,1-1.61-.34l.12-.61h3.16Z"/><path class="cls-2" d="M359.71,544.37c-1.14,1.36-2.91,1.26-3.47,0Z"/><path class="cls-2" d="M497.12,624.44v-3.2l.55-.14a3.68,3.68,0,0,1,.38,1.42C498,623.17,498.74,624.32,497.12,624.44Z"/><path class="cls-2" d="M367.05,544.07a10,10,0,0,1,.1,1.68,14,14,0,0,1-.43,1.75c-.21-.22-.63-.46-.6-.64C366.25,546,365.52,544.78,367.05,544.07Z"/><path class="cls-2" d="M387.62,528.89a10.06,10.06,0,0,1,.31,1.78,7.71,7.71,0,0,1-.34,1.61l-.61-.12V529Z"/><path class="cls-2" d="M385.44,528.89a10,10,0,0,1,.3,1.78,7.68,7.68,0,0,1-.33,1.61l-.62-.12V529Z"/><path class="cls-2" d="M377.14,547.62v-3.3l.54-.14a4.91,4.91,0,0,1,.4,1.42C378,546.29,378.56,547.31,377.14,547.62Z"/><path class="cls-2" d="M509.93,660.78c1.14-1.35,2.91-1.26,3.47,0Z"/><path class="cls-2" d="M349.54,528.85v3.3l-.54.14a4.35,4.35,0,0,1-.4-1.42C348.64,530.19,348.12,529.16,349.54,528.85Z"/><path class="cls-2" d="M338.59,529.07h3.33l.16.45c-.41.17-.84.51-1.23.48C340.11,530,339.05,530.51,338.59,529.07Z"/><path class="cls-2" d="M390.06,526.62h-3.24c.33-1.53,1.45-.82,2.17-.92.38-.05.82.3,1.23.47Z"/><path class="cls-2" d="M485.94,661.82a9.83,9.83,0,0,1,.1,1.67,13.53,13.53,0,0,1-.43,1.75c-.21-.21-.63-.46-.6-.63C485.14,663.73,484.41,662.52,485.94,661.82Z"/><path class="cls-2" d="M356.31,537.47c.44-1.14,2.18-1.27,3.37,0Z"/><path class="cls-2" d="M472,632v-3.2c1.61.13.83,1.27.93,1.93a3.53,3.53,0,0,1-.39,1.41Z"/><path class="cls-2" d="M469.72,664.31h3.2c-.12,1.61-1.27.83-1.92.93a3.88,3.88,0,0,1-1.42-.39Z"/><path class="cls-2" d="M480.51,665.15h-3.25c.34-1.54,1.45-.82,2.17-.93.38-.05.82.31,1.23.48Z"/><path class="cls-2" d="M461.75,670.92a9,9,0,0,1-.11-1.67,15.4,15.4,0,0,1,.43-1.75c.22.21.63.46.61.64C462.54,669,463.27,670.22,461.75,670.92Z"/><path class="cls-2" d="M511.15,642.19H508c.12-1.61,1.27-.83,1.92-.93a3.68,3.68,0,0,1,1.42.38Z"/><path class="cls-2" d="M376.81,548.75a10.52,10.52,0,0,1,1.7-.11,15.45,15.45,0,0,1,1.75.44c-.21.21-.46.62-.64.6C378.75,549.54,377.55,550.25,376.81,548.75Z"/><path class="cls-2" d="M478.07,667.41a9.3,9.3,0,0,1,.3,1.79,7.81,7.81,0,0,1-.33,1.61l-.62-.13v-3.15Z"/><path class="cls-2" d="M508.53,626.71c-.2-.34-.55-.69-.56-1a17.55,17.55,0,0,1,.25-2.26c.27.21.74.4.77.64a20.79,20.79,0,0,1,0,2.5Z"/><path class="cls-2" d="M498,613.73v3l-.65.11a10,10,0,0,1-.29-1.79,7.75,7.75,0,0,1,.34-1.6Z"/><path class="cls-2" d="M513.19,668.44h-3l-.11-.65a10,10,0,0,1,1.79-.3,7.62,7.62,0,0,1,1.6.34Z"/><path class="cls-2" d="M485.05,613.63a4.2,4.2,0,0,1,1.05-.1c.71.1,1.41.29,2.11.44-.09.2-.19.56-.29.56-1,0-2-.08-3-.13Z"/><path class="cls-2" d="M359.18,521.23a10.14,10.14,0,0,1,.3,1.79,7.81,7.81,0,0,1-.33,1.61l-.62-.13v-3.15Z"/><path class="cls-2" d="M471.64,649.85c1.14-1.36,2.9-1.27,3.47,0Z"/><path class="cls-2" d="M504.88,613.6c1.14.43,1.26,2.18,0,3.36Z"/><path class="cls-2" d="M459.35,670.63a4.2,4.2,0,0,1-1.05.1c-.71-.1-1.41-.29-2.11-.44.09-.2.19-.57.29-.56,1,0,2,.08,3,.13Z"/><path class="cls-2" d="M459.22,653.13h-3l-.12-.65a10.3,10.3,0,0,1,1.79-.3,7.71,7.71,0,0,1,1.61.34Z"/><path class="cls-2" d="M489.46,672.92v-3.2l.55-.14a4,4,0,0,1,.39,1.42C490.3,671.66,491.08,672.8,489.46,672.92Z"/><path class="cls-2" d="M508.06,672.92v-3.2l.55-.14A3.77,3.77,0,0,1,509,671C508.89,671.66,509.68,672.8,508.06,672.92Z"/><path class="cls-2" d="M510.2,669.77h3.2c-.12,1.62-1.26.84-1.92.94a4,4,0,0,1-1.42-.39Z"/><path class="cls-2" d="M341.92,537.56h-3.24c.33-1.54,1.45-.82,2.17-.92.38-.06.82.3,1.23.47Z"/><path class="cls-2" d="M480.79,672c-1.14,1.36-2.91,1.26-3.47,0Z"/><path id="bottomLine" class="cls-3" d="M92.56,673.2v-.68H823.91v.68Zm2.5-3.5-1.44-.9L164.8,554.07l1.45.9Z"/><path id="topLine" class="cls-4" d="M202.05,369.22v-.67H933.39v.67ZM930.88,372l1.45.9L861.14,487.67l-1.45-.9Z"/></svg>